:SAMPLES-PER-SECOND 30
:FULLY-SPECIFIED
:DEGREES
155
root  -70.1358 41.1243 12.2571 -177.582 2.5444 175.265
RightUpLeg  -0.408392 -36.6341 -5.11168
RightLeg  32.7862 -8.6077 -6.1781
RightFoot  -10.6256 -0.11481 6.7495
RightToes  0.00048216 0.542163 -0.142577
Spine  5.63258 2.94705 2.04776
Spine1  5.9167 5.39907 -8.69268
HEad  -10.0002 13.757 -0.815899
LeftShoulder1  6.63421 -10.3471 -41.5398
LeftArm  -28.0832 27.4264 -15.8995
LeftForeArm  34.5617 -47.5014 -9.70932
LeftHand  -0.25398 0.0180481 5.50724
RightShoulder  5.10411 9.07229 34.6314
RightArm  5.85867 -8.44533 34.3571
RightForeArm  -0.4278 21.8926 5.03973
RightHand  -1.05457 1.80213 -17.1379
LeftUpLeg  -4.99557 5.1874 -4.14867
LeftLeg  -0.290061 53.9327 -9.19821
LeftFoot  -5.06811 -0.205703 4.31497
LeftToes  1.06247e-005 4.65855e-005 -8.185e-006
156
root  -70.8811 41.0785 12.4109 -178.09 9.27039 175.294
RightUpLeg  2.21114 -39.8612 -5.33009
RightLeg  29.4551 -7.18933 -4.62052
RightFoot  -10.3295 -0.144904 8.38763
RightToes  0.00048216 0.542163 -0.142577
Spine  5.37358 3.08974 2.54593
Spine1  5.89375 5.68054 -9.20411
HEad  -9.15175 11.1006 -0.530783
LeftShoulder1  6.58365 -10.2527 -41.5026
LeftArm  -26.9057 28.6355 -15.7118
LeftForeArm  33.0417 -43.4278 -8.36032
LeftHand  -0.25398 0.0180481 5.50724
RightShoulder  4.98013 8.78068 34.586
RightArm  3.78646 -7.6278 35.8053
RightForeArm  -1.36916 23.2765 5.07239
RightHand  -1.18197 2.39046 -17.768
LeftUpLeg  -4.85385 5.31574 -4.73826
LeftLeg  -1.58161 60.3495 -10.6605
LeftFoot  -6.14357 -0.190494 5.01274
LeftToes  1.06247e-005 4.65855e-005 -8.185e-006
157
root  -71.6408 41.0118 12.5661 -178.822 15.8192 175.234
RightUpLeg  5.44727 -43.0474 -6.25285
RightLeg  24.5135 -5.66389 -3.2662
RightFoot  -10.259 -0.160381 9.70168
RightToes  0.00048216 0.542163 -0.142577
Spine  5.24332 3.11847 3.03353
Spine1  6.07099 5.81928 -9.53216
HEad  -8.41983 8.12584 0.0862045
LeftShoulder1  6.59046 -10.2554 -41.5401
LeftArm  -24.8243 29.5598 -16.0688
LeftForeArm  31.183 -38.7295 -7.03302
LeftHand  -0.25398 0.0180481 5.50724
RightShoulder  5.04853 8.86692 34.8509
RightArm  2.46545 -6.86582 36.9351
RightForeArm  -1.9598 24.3779 5.31133
RightHand  -1.32947 3.06339 -18.4013
LeftUpLeg  -4.7933 5.43136 -5.32159
LeftLeg  -3.10223 66.3053 -12.3909
LeftFoot  -6.90863 -0.191787 6.02009
LeftToes  1.06247e-005 4.65855e-005 -8.185e-006
158
root  -72.3853 40.9506 12.7171 -179.599 21.9678 174.965
RightUpLeg  7.93254 -41.7015 -6.61646
RightLeg  18.9041 -9.53127 -2.20794
RightFoot  -11.4039 -0.076047 9.19947
RightToes  0.00048216 0.542163 -0.142577
Spine  4.88457 2.99626 3.05904
Spine1  6.55822 5.65554 -9.16489
HEad  -7.54574 4.86448 1.15316
LeftShoulder1  6.66681 -10.3538 -41.7376
LeftArm  -22.3613 30.1727 -17.1078
LeftForeArm  30.0091 -33.8182 -5.78728
LeftHand  -0.25398 0.0180481 5.50724
RightShoulder  5.217 9.16318 35.2212
RightArm  2.78302 -5.91774 37.7337
RightForeArm  -2.47573 25.0952 5.50368
RightHand  -1.48478 3.6915 -19.1385
LeftUpLeg  -4.77967 5.75084 -5.77876
LeftLeg  -6.45254 71.7898 -16.307
LeftFoot  -7.54489 -0.191165 7.13629
LeftToes  1.06247e-005 4.65855e-005 -8.185e-006
159
root  -73.141 40.8737 12.8691 179.457 27.4079 174.534
RightUpLeg  8.3065 -25.2482 -4.72301
RightLeg  14.1656 -27.7975 0.455903
RightFoot  -13.6111 0.0440541 6.96777
RightToes  0.00048216 0.542163 -0.142577
Spine  4.75325 2.60525 3.09117
Spine1  7.0633 5.17992 -8.6203
HEad  -6.92647 1.2513 1.68133
LeftShoulder1  6.75743 -10.4673 -41.9789
LeftArm  -19.679 30.1628 -18.769
LeftForeArm  30.1892 -29.031 -4.63604
LeftHand  -0.25398 0.0180481 5.50724
RightShoulder  5.28609 9.2285 35.547
RightArm  4.83163 -4.6524 38.3094
RightForeArm  -1.73929 25.2533 5.50216
RightHand  -1.53398 3.97379 -19.1846
LeftUpLeg  -4.77559 6.30127 -5.958
LeftLeg  -12.0538 76.7143 -23.176
LeftFoot  -8.4496 -0.160545 8.40066
LeftToes  1.06247e-005 4.65855e-005 -8.185e-006
160
root  -73.9623 40.7748 13.0187 178.425 31.9215 174.523
RightUpLeg  8.575 -13.9314 -3.63819
RightLeg  11.1062 -37.8433 2.32437
RightFoot  -15.3723 0.0692613 4.86694
RightToes  0.00048216 0.542163 -0.142577
Spine  5.51801 1.85935 4.1831
Spine1  7.23958 4.46688 -8.48854
HEad  -6.47418 -2.62893 1.39526
LeftShoulder1  6.86718 -10.5865 -42.3228
LeftArm  -17.0355 29.3517 -20.822
LeftForeArm  31.5656 -24.9789 -3.68652
LeftHand  -0.25398 0.0180481 5.50724
RightShoulder  5.18366 8.95004 35.6495
RightArm  7.37713 -3.43371 38.8167
RightForeArm  0.58145 24.9943 5.32457
RightHand  -1.36685 3.49268 -18.0165
LeftUpLeg  -5.06708 10.2307 -5.58122
LeftLeg  -6.35215 77.1008 -19.3233
LeftFoot  -9.64075 -0.0796144 9.13829
LeftToes  1.06247e-005 4.65855e-005 -8.185e-006
161
root  -74.8334 40.6969 13.1608 177.866 35.9187 175.409
RightUpLeg  8.61189 -12.3459 -3.93396
RightLeg  10.6713 -35.0666 2.74538
RightFoot  -15.9772 0.0552456 4.02354
RightToes  0.00048216 0.542163 -0.142577
Spine  6.9092 1.03509 6.2662
Spine1  7.2445 3.73259 -8.33818
HEad  -5.98357 -6.04581 0.911985
LeftShoulder1  7.06285 -10.7713 -43.0077
LeftArm  -15.2685 27.9269 -23.0432
LeftForeArm  33.7514 -22.2024 -3.07526
LeftHand  -0.25398 0.0180481 5.50724
RightShoulder  5.07781 8.68403 35.6895
RightArm  9.30673 -2.76372 38.8436
RightForeArm  2.81776 24.7307 5.14782
RightHand  -1.07467 2.29866 -16.3798
LeftUpLeg  -8.95297 30.4122 -8.15144
LeftLeg  14.0636 58.2364 1.00107
LeftFoot  -10.3332 -0.00662117 7.79314
LeftToes  1.06247e-005 4.65855e-005 -8.185e-006
162
root  -75.6592 40.6808 13.3005 178.068 40.0701 176.805
RightUpLeg  7.62445 -12.8156 -4.19045
RightLeg  11.6548 -29.5224 2.71278
RightFoot  -15.7275 0.0410889 3.85317
RightToes  0.00048216 0.542163 -0.142577
Spine  8.04098 0.621681 7.84743
Spine1  7.4581 3.18761 -7.247
HEad  -5.78227 -8.12036 0.248013
LeftShoulder1  7.31676 -11.0081 -43.877
LeftArm  -15.0459 26.318 -25.4404
LeftForeArm  36.0037 -20.6501 -2.84233
LeftHand  -0.25398 0.0180481 5.50724
RightShoulder  5.17559 8.77441 36.1646
RightArm  10.9378 -2.62852 37.7682
RightForeArm  3.15455 24.1935 4.99406
RightHand  -0.888271 1.29371 -15.5457
LeftUpLeg  -18.8232 59.2189 -15.9169
LeftLeg  20.0244 26.4105 9.30847
LeftFoot  -9.25801 -0.0222852 4.6187
LeftToes  1.06247e-005 4.65855e-005 -8.185e-006
163
root  -76.3605 40.7191 13.4238 178.589 44.3348 177.89
RightUpLeg  5.80258 -13.3719 -4.19401
RightLeg  13.0216 -24.9282 2.27435
RightFoot  -15.1733 0.0110255 3.39616
RightToes  0.00048216 0.542163 -0.142577
Spine  8.47642 0.679119 7.87421
Spine1  7.85321 2.73325 -5.12724
HEad  -5.32803 -9.27248 -0.228307
LeftShoulder1  7.48854 -11.2043 -44.3318
LeftArm  -15.6713 24.9108 -28.0754
LeftForeArm  36.714 -19.8304 -2.78166
LeftHand  -0.25398 0.0180481 5.50724
RightShoulder  5.42866 9.09215 37.0868
RightArm  12.1474 -2.67836 36.0287
RightForeArm  2.72718 22.2789 4.94733
RightHand  -0.899407 1.33136 -15.6384
LeftUpLeg  -24.5515 57.415 -16.1637
LeftLeg  28.3193 23.1308 13.4739
LeftFoot  -5.78708 -0.0918175 2.52924
LeftToes  1.06247e-005 4.65855e-005 -8.185e-006
164
root  -76.9484 40.773 13.482 178.835 48.1013 178.303
RightUpLeg  4.05539 -13.4326 -4.3967
RightLeg  14.0592 -21.5412 1.96958
RightFoot  -14.5397 -0.0205447 2.79119
RightToes  0.00048216 0.542163 -0.142577
Spine  8.51298 0.709524 7.00669
Spine1  7.99627 2.12323 -2.96022
HEad  -4.55465 -9.06715 -0.749386
LeftShoulder1  7.51622 -11.3135 -44.1599
LeftArm  -16.1128 23.8383 -30.4754
LeftForeArm  35.5845 -19.5317 -2.83548
LeftHand  -0.25398 0.0180481 5.50724
RightShoulder  5.57469 9.22454 37.7643
RightArm  9.5456 -2.95706 34.8195
RightForeArm  5.85771 18.3746 5.83764
RightHand  -0.949986 1.72539 -15.6282
LeftUpLeg  -26.5352 53.5019 -13.1336
LeftLeg  34.9741 19.5989 14.4552
LeftFoot  -1.10566 -0.223656 2.53382
LeftToes  1.06247e-005 4.65855e-005 -8.185e-006
